<svg width="18" height="20" viewBox="0 0 18 20" fill="none" xmlns="http://www.w3.org/2000/svg">
<g id="logo">
<path id="Vector" d="M17.9478 6.96875C17.9478 7.63805 17.1522 7.98805 16.6588 7.5358L10.1748 1.59213C9.65768 1.11808 9.99306 0.255859 10.6946 0.255859H17.1786C17.6034 0.255859 17.9478 0.600256 17.9478 1.02509V6.96875Z" fill="url(#paint0_linear_1204_3226)"/>
<path id="Vector_2" d="M9.22278e-06 13.2873C1.02614e-05 12.618 0.795643 12.268 1.28903 12.7203L7.77302 18.664C8.29014 19.138 7.95476 20.0002 7.25322 20.0002H0.76923C0.344394 20.0002 -6.59214e-07 19.6558 0 19.231L9.22278e-06 13.2873Z" fill="url(#paint1_linear_1204_3226)"/>
<path id="Vector_3" d="M1.02637 2.51953V8.33343L12.5648 19.8719L16.6674 17.6923L1.02637 2.51953Z" fill="url(#paint2_linear_1204_3226)"/>
<path id="Vector_4" d="M16.7943 17.3523V11.5385L5.25588 0L1.15332 2.30769L16.7943 17.3523Z" fill="url(#paint3_linear_1204_3226)"/>
</g>
<defs>
<linearGradient id="paint0_linear_1204_3226" x1="10.0755" y1="3.99768" x2="21.0592" y2="3.14416" gradientUnits="userSpaceOnUse">
<stop stop-color="#FF3F02"/>
<stop offset="1" stop-color="#FDC103"/>
</linearGradient>
<linearGradient id="paint1_linear_1204_3226" x1="0.151682" y1="16.2584" x2="11.1354" y2="15.4049" gradientUnits="userSpaceOnUse">
<stop stop-color="#FF3F02"/>
<stop offset="1" stop-color="#FDC103"/>
</linearGradient>
<linearGradient id="paint2_linear_1204_3226" x1="1.32204" y1="11.1957" x2="22.7702" y2="9.79457" gradientUnits="userSpaceOnUse">
<stop stop-color="#FF3F02"/>
<stop offset="1" stop-color="#FDC103"/>
</linearGradient>
<linearGradient id="paint3_linear_1204_3226" x1="1.44899" y1="8.67618" x2="22.8971" y2="7.27504" gradientUnits="userSpaceOnUse">
<stop stop-color="#FF3F02"/>
<stop offset="1" stop-color="#FDC103"/>
</linearGradient>
</defs>
</svg>
